<svg width="238" height="193" viewBox="0 0 238 193" fill="none" xmlns="http://www.w3.org/2000/svg">
<path d="M96.29 0.501964C96.9563 0.501935 97.6272 0.501989 98.3027 0.501964V1.07452e-05C98.9549 -1.97722e-05 99.6116 2.60041e-05 100.272 1.07452e-05V0.501964C100.915 0.501943 101.563 0.501982 102.214 0.501964V1.07452e-05C102.865 -4.51152e-06 103.52 2.60019e-05 104.18 1.07452e-05V0.500987C104.839 0.500972 105.503 0.501 106.171 0.500987V1.07452e-05C106.839 1.07452e-05 107.511 2.6004e-05 108.188 1.07452e-05V0.500987C108.836 0.500978 109.489 0.500995 110.146 0.500987V1.07452e-05C110.789 -4.51361e-06 111.437 2.6004e-05 112.089 1.07452e-05V0.500011C112.74 0.500005 113.396 0.500015 114.055 0.500011V1.07452e-05H116.044V0.500011C116.711 0.500009 117.381 0.500011 118.056 0.500011V1.07452e-05H120.058V0.500011H122.031V1.07452e-05H124.006V0.500011H125.979V1.07452e-05H127.953V0.500011H129.927V1.07452e-05H131.9V0.500011H133.874V1.07452e-05H135.849V0.500011H137.822V1.07452e-05H139.796V0.500011H141.77V1.07452e-05H143.743V0.500011H145.717V1.07452e-05H147.691V0.500011H149.665V1.07452e-05H151.639V0.500011H153.612V1.07452e-05H155.586V0.500011H157.56V1.07452e-05H159.534V0.500011H161.508V1.07452e-05H163.481V0.500011H165.455V1.07452e-05H167.429V0.500011H169.402V1.07452e-05H171.377V0.500011H173.351V1.07452e-05H175.324V0.500011H177.298V1.07452e-05H179.271V0.500011H181.246V1.07452e-05H183.22V0.500011H185.193V1.07452e-05H187.167V0.500011H189.141V1.07452e-05H191.114V0.500011H193.089V1.07452e-05H195.062V0.500011H197.036V1.07452e-05H199.01V0.500011H200.983V1.07452e-05H202.957V0.500011H204.932V1.07452e-05H206.905V0.500011H208.879V1.07452e-05H210.853V0.500011H212.826V1.07452e-05H214.8V0.500011H216.774V1.07452e-05H218.748V0.500011H220.722V1.07452e-05H222.695V0.500011H224.669V1.07452e-05H226.644V0.500011H228.617V1.07452e-05H230.591V0.500011H232.564V1.07452e-05H234.538V0.500011H236.512V1.07452e-05H238.002L237.999 0.50294L237.994 1.52735L237.494 1.5254L237.493 1.52442L237.483 3.57618L237.983 3.57814L237.974 5.62892L237.474 5.62599L237.473 5.62501L237.463 7.67677L237.963 7.67872L237.958 8.70411V8.70607L237.95 9.73341L237.45 9.7295L237.435 11.7852L237.935 11.7881L237.92 13.8438L237.419 13.8389L237.403 15.8945L237.904 15.8994L237.896 16.9268L237.893 17.4229H237.397L236.416 17.4238V16.9238L234.455 16.9258V17.4258L232.494 17.4277V16.9277L230.532 16.9297L230.533 16.9307V17.4307L228.572 17.4326V16.9326L228.571 16.9317L226.61 16.9336L226.611 16.9346V17.4346L224.65 17.4365V16.9365L224.649 16.9356L222.688 16.9375L222.689 16.9385V17.4385L220.729 17.4404V16.9404L220.728 16.9395L218.768 16.9424V17.4424L216.807 17.4443V16.9443L214.846 16.9463V17.4463L212.885 17.4492V16.9492L212.884 16.9483L210.923 16.9502L210.924 16.9512V17.4512L208.963 17.4531V16.9531L208.962 16.9522L207.001 16.9541L207.002 16.9551V17.4551L205.041 17.457V16.957L205.04 16.9561L203.079 16.958L203.08 16.959V17.459L201.119 17.4609V16.9609L201.118 16.96L199.158 16.9629V17.4629L197.197 17.4649V16.9649L195.235 16.9668L195.236 17.4668L193.275 17.4697L193.274 16.9697V16.9688L191.313 16.9707V16.9717L191.314 17.4717L189.354 17.4736L189.353 16.9736V16.9727L187.392 16.9746V16.9756L187.393 17.4756L185.432 17.4775L185.431 16.9775V16.9766L183.47 16.9785V16.9795L183.471 17.4795L182.49 17.4805L181.509 17.4815V16.9805L179.547 16.9824L179.548 17.4824L177.586 17.4844L177.585 16.9844V16.9834L175.623 16.9844L175.624 16.9854V17.4854L173.662 17.4873V16.9863L171.7 16.9873V17.4883L169.739 17.4893L169.738 16.9893L167.776 16.9902L167.777 16.9912V17.4912L165.815 17.4922V16.9922L163.854 16.9932V17.4942L161.893 17.4951L161.892 16.9951L159.93 16.9961L159.931 17.4961L157.969 17.4981V16.9981L157.968 16.9971L156.007 16.999V17.499L154.045 17.501V17L152.083 17.002L152.084 17.502L150.122 17.5029V17.0029L148.159 17.0039L148.16 17.0049V17.5049L146.198 17.5059V17.0059L144.236 17.0068V17.0078L144.237 17.5078L142.275 17.5088L142.274 17.0088L140.313 17.0098V17.5098L138.352 17.5117V17.0117L136.39 17.0127L136.391 17.5127L134.429 17.5147L134.428 17.0147L132.467 17.0156V17.5156L130.505 17.5166V17.0166L128.543 17.0186V17.5186L128.062 17.5195V18.0039H127.562V19.9727H128.062V21.9414H127.562V23.9102H128.062V25.8789H127.562V27.8477H128.062V29.8164H127.562V31.7852H128.062V33.7539H127.562V35.7227H128.062V37.6924H127.562V39.6611H128.062V41.6299H127.562V43.5986H128.062V45.5674H127.562V47.5361H128.062V49.5049H127.562V51.4736H128.062V53.4424H127.562V55.4111H128.062V57.3809H127.562V59.3496H128.062V61.3184H127.562V63.2871H128.062V65.2559H127.562V67.2246H128.062V69.1934H127.562V71.1621H128.062V73.1309H127.562V75.0996H128.062V77.0684H127.562V79.0381H128.062V81.0068H127.562V82.9756H128.062V84.9502H127.562C127.563 85.6092 127.563 86.2652 127.563 86.918H128.062C128.063 87.5784 128.062 88.2358 128.062 88.8897H127.563C127.564 89.5474 127.564 90.2017 127.564 90.8525H128.063C128.064 91.5147 128.063 92.1733 128.063 92.8281H127.565C127.566 93.4862 127.565 94.1405 127.565 94.791H128.064C128.065 95.4531 128.065 96.1116 128.065 96.7656H127.566C127.567 97.4257 127.567 98.0817 127.567 98.7334H128.066C128.067 99.3934 128.067 100.049 128.067 100.7H127.568C127.569 101.363 127.57 102.021 127.57 102.674H128.069C128.07 103.332 128.07 103.986 128.07 104.635H127.571C127.572 105.299 127.572 105.957 127.572 106.61H128.072C128.073 107.272 128.074 107.928 128.074 108.579L127.574 108.58C127.575 109.24 127.575 109.894 127.576 110.542L128.076 110.541C128.077 111.206 128.078 111.866 128.079 112.519L127.579 112.52C127.58 113.181 127.58 113.837 127.581 114.485H128.081C128.082 115.146 128.083 115.801 128.084 116.448H127.585C127.586 117.115 127.587 117.774 127.588 118.425H128.087C128.088 119.089 128.09 119.746 128.091 120.395H127.591C127.592 121.057 127.593 121.711 127.594 122.356H128.094C128.095 123.023 128.096 123.68 128.098 124.327H127.599C127.6 124.996 127.601 125.654 127.603 126.302H128.103C128.104 126.97 128.105 127.626 128.106 128.271H127.607C127.609 128.94 127.611 129.595 127.612 130.238H128.111C128.113 130.907 128.115 131.562 128.117 132.202L127.617 132.203C127.619 132.874 127.621 133.529 127.623 134.168L128.123 134.167C128.125 134.84 128.127 135.496 128.129 136.134L127.63 136.135C127.632 136.812 127.634 137.468 127.637 138.104L128.136 138.103C128.138 138.785 128.142 139.443 128.145 140.076L127.644 140.079C127.646 140.767 127.651 141.426 127.654 142.054L128.153 142.053C128.157 142.748 128.16 143.405 128.163 144.023L127.665 144.025C127.669 144.729 127.672 145.383 127.676 145.984L128.176 145.982C128.181 146.717 128.186 147.373 128.191 147.949L127.693 147.953C127.701 148.786 127.707 149.45 127.715 149.936H127.78C127.864 149.792 127.971 149.612 128.1 149.401L128.526 149.662L128.528 149.663C128.8 149.218 129.169 148.62 129.62 147.903L129.197 147.638C129.527 147.114 129.899 146.526 130.306 145.887L130.728 146.155C131.075 145.61 131.45 145.028 131.844 144.413L131.42 144.142C131.777 143.585 132.151 143.002 132.538 142.399L132.958 142.67L132.96 142.671C133.323 142.107 133.697 141.526 134.081 140.932L134.079 140.931L133.659 140.659C134.026 140.091 134.402 139.51 134.784 138.921L135.204 139.192L135.207 139.194C135.577 138.623 135.952 138.043 136.331 137.459L135.911 137.186C136.099 136.897 136.287 136.607 136.476 136.317L136.477 136.316C136.652 136.048 136.838 135.762 137.034 135.462L137.451 135.734C137.798 135.203 138.174 134.626 138.57 134.017L138.153 133.745C138.511 133.196 138.885 132.62 139.27 132.028L139.688 132.3C140.053 131.739 140.426 131.163 140.804 130.581L140.386 130.311C140.755 129.742 141.129 129.166 141.501 128.592L141.919 128.862C142.293 128.285 142.667 127.71 143.034 127.143L142.615 126.872C142.994 126.287 143.367 125.71 143.729 125.151L144.147 125.422C144.534 124.825 144.907 124.248 145.26 123.701L144.841 123.431C145.24 122.813 145.614 122.234 145.953 121.709L146.372 121.979C146.806 121.306 147.181 120.722 147.48 120.256L147.062 119.987C147.295 119.624 147.481 119.334 147.61 119.131L147.612 119.126C147.771 118.883 147.988 118.549 148.238 118.166L148.657 118.438C149.03 117.866 149.476 117.181 149.908 116.517L149.49 116.245C149.705 115.915 149.918 115.589 150.115 115.285C150.277 115.037 150.485 114.715 150.73 114.337L151.148 114.608C151.496 114.072 151.918 113.423 152.379 112.712L151.96 112.44C152.348 111.842 152.764 111.2 153.19 110.543L153.61 110.815C154.018 110.187 154.433 109.546 154.841 108.918L154.422 108.646C154.629 108.326 154.835 108.01 155.036 107.7V107.699C155.233 107.394 155.434 107.084 155.636 106.771L156.056 107.043L156.058 107.044C156.457 106.427 156.862 105.802 157.259 105.192L157.257 105.191L156.837 104.919C157.255 104.275 157.664 103.65 158.043 103.069L158.462 103.343C158.918 102.645 159.333 102.014 159.672 101.497L159.252 101.222C159.497 100.848 159.704 100.534 159.859 100.299L159.862 100.295C159.987 100.111 160.176 99.8257 160.42 99.4551L160.836 99.7285C161.133 99.2774 161.511 98.7026 161.948 98.0332L161.531 97.7598C161.869 97.2433 162.243 96.6708 162.644 96.0557L163.061 96.3281C163.412 95.7893 163.783 95.2177 164.17 94.6231L163.753 94.3525C164.111 93.8014 164.483 93.2294 164.862 92.6455L165.279 92.917C165.642 92.3579 166.014 91.7878 166.388 91.2119L165.97 90.9404C166.337 90.3749 166.707 89.8039 167.076 89.2344L167.494 89.5059C167.865 88.9337 168.235 88.3626 168.601 87.7988L168.183 87.5283C168.558 86.9493 168.927 86.3773 169.288 85.8203L169.707 86.0918C170.088 85.5039 170.457 84.9317 170.812 84.3838L170.393 84.1133C170.782 83.512 171.152 82.9395 171.496 82.4063L171.915 82.6768C172.322 82.047 172.693 81.472 173.018 80.9688L172.599 80.6983C172.8 80.3862 172.984 80.1023 173.146 79.8496V79.8486C173.271 79.6549 173.428 79.4097 173.611 79.126L174.031 79.3965L174.032 79.3975C174.297 78.9864 174.616 78.4927 174.964 77.9551L174.544 77.6836C174.839 77.2277 175.156 76.7401 175.479 76.2432L175.897 76.5147H175.898C176.209 76.0365 176.525 75.5498 176.833 75.0752L176.413 74.8027C176.572 74.5589 176.728 74.3178 176.881 74.083L176.882 74.082C177.061 73.8084 177.237 73.5377 177.412 73.2705L177.83 73.543C178.193 72.9885 178.545 72.4472 178.889 71.9209L178.473 71.6494C178.836 71.0933 179.19 70.5528 179.532 70.0283L179.947 70.2998C180.312 69.7418 180.664 69.2015 181.005 68.6797L180.59 68.4082C180.957 67.846 181.31 67.3048 181.649 66.7852L182.065 67.0557C182.435 66.4897 182.788 65.9496 183.124 65.4346L182.708 65.1631C183.082 64.5903 183.434 64.049 183.766 63.54L184.183 63.8115C184.562 63.2284 184.915 62.6878 185.239 62.1895L184.821 61.918C185.214 61.3132 185.566 60.7716 185.876 60.294L186.294 60.5645C186.726 59.8976 187.075 59.3542 187.341 58.9395L186.924 58.6709C187.167 58.2915 187.339 58.0215 187.438 57.8613V57.8604H187.439L187.618 57.5723L188.042 57.8359L188.401 57.2608L187.978 56.9961L188.157 56.708L188.304 56.4727H189.794V56.9727H192.22V56.4727H194.645V56.9727H197.07V56.4727H199.513L199.512 56.9727V56.9736C200.419 56.9739 201.229 56.9762 201.952 56.9775L201.954 56.4746C202.917 56.4765 203.727 56.48 204.408 56.4854L204.403 56.9854L204.402 56.9863C205.541 56.9953 206.318 57.0099 206.847 57.0352L206.848 57.0342L206.872 56.5352C207.368 56.5589 207.707 56.5928 207.928 56.6592C208.04 56.6929 208.192 56.7548 208.309 56.8897C208.444 57.0452 208.464 57.2163 208.464 57.3184C208.464 57.4036 208.443 57.4746 208.434 57.5059C208.421 57.5463 208.406 57.5855 208.392 57.6201C208.362 57.6901 208.324 57.7712 208.279 57.8565C208.19 58.0284 208.063 58.2502 207.91 58.5068L207.48 58.251L207.479 58.25C207.194 58.727 206.803 59.3487 206.354 60.0322L206.354 60.0332L206.772 60.3076C206.585 60.5923 206.388 60.8874 206.185 61.1875H206.186C205.981 61.4939 205.779 61.7962 205.579 62.0967L205.164 61.8193C204.758 62.4295 204.358 63.0308 203.954 63.6397L204.371 63.916C203.976 64.5116 203.577 65.1136 203.165 65.7373L202.749 65.4619C202.363 66.0471 201.964 66.6506 201.546 67.2852L201.964 67.5606C201.582 68.1402 201.183 68.7457 200.763 69.3858L200.348 69.1113C199.968 69.6899 199.569 70.2965 199.147 70.9385L199.563 71.2119C199.184 71.7904 198.786 72.3976 198.366 73.0381L197.949 72.7647C197.569 73.3453 197.169 73.9526 196.75 74.5918L197.168 74.8662C196.972 75.1646 196.773 75.4699 196.568 75.7822L196.567 75.7832L196.151 76.417L195.733 76.1436C195.486 76.5214 195.203 76.956 194.903 77.416L195.321 77.6885C195.053 78.0995 194.772 78.5315 194.491 78.9619L194.073 78.6885C193.791 79.1219 193.509 79.5535 193.242 79.9619L193.661 80.2354C193.518 80.4556 193.378 80.6691 193.245 80.8721L193.244 80.8731L192.752 81.6221L192.335 81.3477C192.017 81.8309 191.691 82.3294 191.352 82.8467L191.768 83.1201C191.451 83.602 191.124 84.1009 190.784 84.6201L190.367 84.3467C190.052 84.8279 189.725 85.3262 189.385 85.8457L189.803 86.1192C189.488 86.6008 189.161 87.1006 188.821 87.6201L188.404 87.3467C188.089 87.8293 187.762 88.3293 187.423 88.8486L187.841 89.1221C187.525 89.6052 187.198 90.105 186.86 90.6231L186.442 90.3506C186.126 90.8347 185.799 91.3343 185.462 91.8516L185.881 92.124C185.72 92.3708 185.557 92.6222 185.391 92.877L185.39 92.8779L184.957 93.5381L184.539 93.2637L184.538 93.2627C184.26 93.6865 183.966 94.1341 183.671 94.584L183.673 94.585L184.091 94.8594C183.798 95.3057 183.505 95.7537 183.225 96.1807L182.805 95.9043C182.492 96.3812 182.196 96.8323 181.938 97.2256L181.939 97.2266L182.357 97.502C182.197 97.7464 182.049 97.9683 181.922 98.1611H181.923C181.763 98.4036 181.605 98.6436 181.448 98.8809L181.03 98.6055C180.705 99.0984 180.388 99.5791 180.081 100.045L180.082 100.046L180.499 100.321C180.171 100.82 179.854 101.301 179.551 101.761L179.133 101.485C178.799 101.992 178.482 102.474 178.186 102.925L178.603 103.2C178.257 103.725 177.94 104.208 177.655 104.641L177.238 104.367C176.861 104.942 176.542 105.429 176.294 105.809L176.711 106.081L176.245 106.799C176.164 106.935 176.065 107.093 175.958 107.261L175.535 106.991C175.351 107.28 175.136 107.603 174.937 107.901L175.354 108.182C175.246 108.344 175.141 108.5 175.046 108.638C174.955 108.772 174.74 109.098 174.429 109.573L174.013 109.3C173.69 109.792 173.263 110.441 172.769 111.196L173.187 111.47C172.809 112.047 172.391 112.687 171.947 113.366L171.529 113.094C171.133 113.7 170.716 114.339 170.29 114.992L170.708 115.265C170.503 115.578 170.297 115.896 170.089 116.215C169.925 116.466 169.76 116.719 169.595 116.973L169.176 116.7C168.847 117.204 168.517 117.713 168.188 118.217L168.606 118.49C168.272 119.003 167.94 119.511 167.617 120.007L167.2 119.734C166.859 120.258 166.528 120.767 166.212 121.253L166.629 121.524C166.277 122.064 165.946 122.575 165.642 123.042L165.225 122.77C164.846 123.352 164.51 123.866 164.235 124.289L164.653 124.561C164.456 124.864 164.291 125.12 164.163 125.317L164.16 125.322L163.463 126.378L163.045 126.103C162.573 126.817 162.076 127.571 161.65 128.216L162.068 128.491C161.799 128.9 161.558 129.265 161.37 129.548L161.366 129.554L160.898 130.249L160.483 129.972C160.22 130.368 159.901 130.849 159.554 131.379L159.972 131.653C159.681 132.097 159.37 132.575 159.052 133.064L158.633 132.792C158.329 133.259 158.02 133.738 157.718 134.209L158.137 134.48C157.983 134.719 157.831 134.956 157.683 135.188L157.681 135.191C157.423 135.588 157.167 135.984 156.918 136.368L156.498 136.097L156.497 136.096C155.92 136.985 155.382 137.811 154.968 138.449L155.389 138.723C155.012 139.302 154.737 139.726 154.625 139.897L154.62 139.904L154.616 139.911L154.182 140.564L153.764 140.291L153.763 140.29C153.533 140.64 153.236 141.099 152.892 141.63L153.312 141.902C153.046 142.312 152.752 142.765 152.442 143.244L152.022 142.972C151.744 143.402 151.451 143.854 151.153 144.313L151.573 144.586C151.429 144.808 151.283 145.032 151.138 145.257C150.946 145.552 150.747 145.858 150.544 146.171L150.125 145.898L150.123 145.896C149.736 146.491 149.332 147.11 148.931 147.725L148.933 147.726L149.352 147.999C148.944 148.622 148.539 149.241 148.156 149.825L147.737 149.55C147.299 150.218 146.889 150.84 146.538 151.372L146.54 151.374L146.958 151.649C146.73 151.995 146.527 152.303 146.356 152.56V152.561L145.825 153.359L145.408 153.083C145.055 153.615 144.701 154.149 144.349 154.682L144.765 154.958C144.41 155.494 144.056 156.029 143.706 156.559L143.289 156.283C142.932 156.824 142.579 157.359 142.232 157.886L142.65 158.16C142.291 158.705 141.938 159.241 141.596 159.763L141.179 159.488L141.178 159.487C140.815 160.039 140.465 160.577 140.127 161.094L140.545 161.367C140.178 161.928 139.826 162.466 139.495 162.974L139.076 162.701C138.7 163.278 138.35 163.818 138.031 164.31L138.45 164.582C138.266 164.866 138.092 165.135 137.93 165.386V165.387L137.447 166.131L137.027 165.858L137.025 165.857C136.706 166.35 136.381 166.848 136.059 167.343L136.479 167.618C136.152 168.12 135.826 168.618 135.508 169.103L135.089 168.828L135.088 168.827C134.752 169.34 134.425 169.838 134.113 170.31L134.114 170.311L134.532 170.586C134.181 171.118 133.851 171.617 133.552 172.066L133.133 171.787C132.743 172.374 132.408 172.877 132.148 173.26L132.149 173.261L132.563 173.541L132.045 174.287C132.011 174.334 131.979 174.38 131.948 174.425L131.54 174.139C131.459 174.254 131.386 174.359 131.335 174.441L131.743 174.695C131.747 174.675 131.754 174.643 131.754 174.604C131.754 174.637 131.75 174.669 131.745 174.696L131.76 174.705C131.747 174.726 131.738 174.742 131.731 174.753C131.722 174.785 131.714 174.806 131.713 174.808C131.702 174.835 131.69 174.86 131.681 174.877C131.662 174.913 131.639 174.952 131.615 174.991C131.567 175.071 131.501 175.175 131.423 175.295L131.002 175.021C130.862 175.235 130.672 175.516 130.46 175.83L130.876 176.112C130.788 176.243 130.696 176.379 130.602 176.518L130.597 176.524L130.237 177.036L129.829 176.751C129.566 177.129 129.312 177.493 129.115 177.785L129.53 178.064C129.374 178.297 129.259 178.472 129.201 178.568L129.195 178.577L129.19 178.585L128.693 179.336L128.276 179.061L128.274 179.06C128.016 179.45 127.673 179.965 127.28 180.558L127.283 180.56L127.699 180.836C127.394 181.297 127.057 181.803 126.705 182.334L126.289 182.058L126.285 182.055C125.963 182.54 125.627 183.046 125.29 183.554L125.294 183.557L125.71 183.833C125.376 184.336 125.041 184.841 124.715 185.331L124.298 185.055L124.295 185.053C123.948 185.575 123.612 186.082 123.3 186.552L123.302 186.553L123.718 186.83C123.544 187.092 123.377 187.342 123.22 187.577L123.213 187.588L122.692 188.348L122.278 188.067C121.956 188.545 121.589 189.098 121.246 189.616L121.662 189.893C121.481 190.166 121.306 190.432 121.149 190.669L121.147 190.671L120.651 191.404L120.238 191.12C119.688 191.922 119.368 192.328 119.115 192.454L119.116 192.455L119.342 192.902C119.218 192.965 119.076 193.005 118.921 193C118.766 192.995 118.632 192.946 118.521 192.884C118.321 192.772 118.152 192.586 118.017 192.431L118.012 192.425L118.007 192.418C117.92 192.311 117.812 192.172 117.695 192.017L118.097 191.716C117.921 191.48 117.719 191.197 117.526 190.925L117.524 190.927L117.115 191.215C117.017 191.075 116.921 190.939 116.833 190.811L116.828 190.804C116.736 190.664 116.539 190.367 116.264 189.95L116.68 189.674C116.384 189.227 115.998 188.643 115.55 187.968V187.969L115.134 188.245C114.788 187.724 114.406 187.148 114.001 186.54L114.414 186.264C114.051 185.718 113.67 185.144 113.28 184.56L112.865 184.837C112.677 184.555 112.488 184.271 112.297 183.986L112.296 183.985C112.108 183.703 111.924 183.426 111.744 183.155L112.16 182.877C111.776 182.3 111.409 181.748 111.058 181.22L111.057 181.221L110.641 181.498C110.255 180.919 109.888 180.368 109.539 179.843L109.956 179.566L109.957 179.565C109.569 178.982 109.203 178.431 108.855 177.909L108.854 177.91L108.438 178.188C108.047 177.6 107.681 177.049 107.336 176.53L107.752 176.254L107.753 176.252C107.359 175.66 106.993 175.11 106.651 174.596L106.65 174.598L106.234 174.874C105.839 174.279 105.474 173.73 105.135 173.219L105.552 172.942V172.941C105.156 172.345 104.794 171.797 104.454 171.283L104.036 171.561C103.647 170.972 103.287 170.426 102.939 169.899L103.356 169.624V169.623C102.985 169.059 102.628 168.516 102.265 167.963L101.847 168.238C101.667 167.965 101.486 167.688 101.301 167.406C101.115 167.123 100.933 166.845 100.756 166.574L101.173 166.301C100.791 165.718 100.427 165.166 100.083 164.642L99.667 164.915C99.2814 164.327 98.9182 163.775 98.5771 163.256L98.9932 162.981C98.6028 162.387 98.2401 161.835 97.9033 161.322L97.4883 161.596C97.0913 160.991 96.7297 160.44 96.3994 159.938L96.8145 159.664C96.4061 159.042 96.0467 158.493 95.7256 158.005L95.3086 158.28C94.8808 157.63 94.5238 157.088 94.2178 156.625L94.6328 156.35C94.1728 155.654 93.8283 155.137 93.5352 154.7L93.1221 154.978C92.9203 154.677 92.7425 154.416 92.5684 154.16C92.4436 153.978 92.2846 153.741 92.0996 153.464L92.5156 153.187L92.5166 153.186C92.2548 152.794 91.9393 152.319 91.5947 151.796L91.5938 151.797L91.1768 152.072C90.8872 151.633 90.5768 151.161 90.2598 150.677L90.6797 150.4C90.3776 149.939 90.068 149.469 89.7656 149.005L89.7646 149.006L89.3457 149.279C89.1919 149.043 89.0398 148.809 88.8906 148.58C88.7463 148.358 88.5996 148.133 88.4521 147.906L88.8701 147.634C88.577 147.184 88.2801 146.729 87.9912 146.286L87.5742 146.56C87.2681 146.09 86.9711 145.635 86.6953 145.214L87.1133 144.94H87.1123C86.7778 144.43 86.4751 143.97 86.2275 143.597L85.8115 143.873C85.6303 143.6 85.4796 143.374 85.3682 143.21L85.3643 143.203C85.2569 143.039 85.1119 142.82 84.9395 142.557L85.3584 142.282V142.281C85.121 141.919 84.83 141.476 84.5098 140.986V140.987L84.0918 141.261C83.8256 140.854 83.5381 140.415 83.2441 139.964L83.6641 139.688C83.3853 139.261 83.0994 138.823 82.8193 138.392L82.8184 138.393L82.3994 138.665C82.2573 138.446 82.1166 138.228 81.9785 138.015H81.9775L81.9766 138.013C81.8427 137.804 81.7064 137.591 81.5693 137.379L81.9883 137.109C81.7145 136.685 81.4382 136.257 81.168 135.842L80.75 136.115C80.4629 135.674 80.1843 135.247 79.9258 134.854L80.3418 134.579C80.0264 134.099 79.7405 133.668 79.5098 133.319L79.0957 133.595C78.9267 133.339 78.7864 133.129 78.6846 132.977C78.5719 132.814 78.4135 132.58 78.2207 132.292L78.6367 132.013C78.3861 131.639 78.0749 131.171 77.7285 130.646L77.3115 130.923C77.0302 130.497 76.7252 130.033 76.4102 129.552L76.8281 129.277L76.8301 129.275C76.5369 128.828 76.2343 128.365 75.9336 127.902L75.9316 127.904L75.5127 128.177C75.363 127.947 75.2141 127.716 75.0664 127.488H75.0654C74.8823 127.205 74.704 126.928 74.5293 126.658L74.9482 126.387C74.5734 125.807 74.217 125.257 73.8779 124.733L73.46 125.005C73.0825 124.422 72.7258 123.872 72.3877 123.351L72.8066 123.078H72.8057C72.4258 122.492 72.0687 121.943 71.7314 121.425L71.3135 121.697C70.9318 121.11 70.5753 120.563 70.2383 120.047L70.6553 119.773C70.2731 119.188 69.9148 118.644 69.5752 118.127L69.1602 118.4C68.7806 117.823 68.4223 117.28 68.0752 116.756L68.4922 116.48H68.4912C68.1191 115.919 67.7584 115.379 67.3975 114.84L66.9844 115.117C66.8025 114.845 66.6198 114.574 66.4355 114.3C66.2378 114.005 66.0433 113.715 65.8477 113.423L66.2637 113.145L66.2646 113.144C65.8902 112.584 65.5112 112.015 65.0957 111.388L65.0947 111.39L64.6777 111.665C64.3235 111.13 63.9427 110.553 63.5156 109.902L63.9346 109.627C63.5842 109.093 63.2033 108.51 62.7793 107.861L62.7773 107.863L62.3584 108.137C62.0057 107.597 61.6245 107.011 61.207 106.37L61.626 106.098L61.627 106.097C61.2705 105.55 60.8879 104.962 60.4756 104.328L60.0557 104.602C59.6964 104.049 59.3135 103.461 58.9062 102.834L59.3262 102.562L59.3271 102.561C58.9643 102.002 58.5807 101.412 58.1758 100.788V100.789L57.7559 101.062C57.5689 100.773 57.3772 100.478 57.1807 100.175C56.9274 99.7883 56.6571 99.3755 56.3828 98.957L56.8008 98.6826C56.2471 97.838 55.6777 96.9695 55.2012 96.2432L54.7832 96.5176C54.4641 96.0312 54.1863 95.6086 53.9834 95.2998C53.7724 94.9806 53.5561 94.6507 53.3311 94.3086L53.748 94.0342V94.0332C53.344 93.4189 52.9149 92.7629 52.4502 92.0498V92.0508L52.0312 92.3233C51.629 91.7061 51.1996 91.0461 50.7383 90.333L51.1582 90.0606C50.7562 89.4393 50.33 88.7772 49.874 88.0684L49.873 88.0693L49.4531 88.3399C49.2461 88.0181 49.0329 87.6865 48.8135 87.3447C48.6372 87.0749 48.4542 86.796 48.2725 86.5186L48.6904 86.2442H48.6895C48.2998 85.6495 47.9142 85.0627 47.6035 84.5918L47.1875 84.8672C46.9527 84.5114 46.762 84.2227 46.6445 84.0479C46.3403 83.5985 46.065 83.1923 45.8154 82.8233L46.2305 82.542C45.4898 81.4467 44.9731 80.6799 44.5811 80.0889L44.1631 80.3662C43.8221 79.8522 43.5733 79.4684 43.3525 79.1162L43.3496 79.1104C43.2452 78.9393 43.0721 78.6707 42.8555 78.3408L43.2715 78.0664C42.9766 77.6175 42.6095 77.0658 42.2412 76.5137L41.8262 76.791C41.6516 76.5293 41.476 76.2673 41.3086 76.0156C41.175 75.8168 41.0177 75.5811 40.8428 75.3184L41.2598 75.041L41.2617 75.0391C40.9886 74.6289 40.6706 74.152 40.333 73.6406L40.332 73.6416L39.9141 73.917C39.6172 73.4674 39.304 72.9921 38.9902 72.5137L39.4092 72.2393L39.4111 72.2373C39.1008 71.7642 38.7892 71.2885 38.4922 70.832L38.4902 70.834L38.0713 71.1065C37.9141 70.865 37.7604 70.6287 37.6133 70.4014C37.4525 70.1529 37.2809 69.8881 37.1016 69.6123L37.5176 69.3408C37.1926 68.8411 36.8429 68.3047 36.4873 67.7617L36.0713 68.0342C35.7259 67.5069 35.3753 66.9729 35.0371 66.46L35.4531 66.1846C35.0836 65.6239 34.7288 65.0881 34.4121 64.6123L33.998 64.8897C33.8085 64.6049 33.6326 64.342 33.4756 64.1084L33.4736 64.1065C33.3065 63.8547 33.1443 63.6091 32.9893 63.375L33.4062 63.0996L33.4072 63.0977C33.0277 62.5246 32.6916 62.0177 32.4424 61.6338V61.6348L32.0234 61.9072C31.8801 61.6864 31.7627 61.5034 31.6807 61.3711C31.6402 61.3058 31.6056 61.2481 31.5801 61.2031C31.5678 61.1815 31.5532 61.156 31.541 61.1309C31.5352 61.1189 31.5256 61.0989 31.5166 61.0752C31.5165 61.075 31.516 61.0742 31.5156 61.0733C31.5132 61.0692 31.5108 61.0646 31.5078 61.0596C31.4818 61.0167 31.441 60.9528 31.3867 60.8701L31.8037 60.5957C31.7041 60.4439 31.5686 60.2452 31.417 60.0234L31.0068 60.3047C30.946 60.2156 30.8818 60.1232 30.8164 60.0283C30.5978 59.7213 30.3937 59.4509 30.209 59.2031L30.6084 58.9043C29.9255 57.9886 29.6225 57.5231 30.4072 57.2842L30.2617 56.8057C30.7218 56.6656 31.4404 56.6028 32.4375 56.5684L32.4541 57.0684V57.0703C33.0257 57.0506 33.7108 57.0378 34.5254 57.0313L34.5215 56.5313C35.1352 56.5264 35.8217 56.5238 36.5869 56.5215L36.5879 57.0205C37.2225 57.0186 37.912 57.0165 38.6602 57.0137L38.6592 56.5156C38.9918 56.5144 39.3362 56.5125 39.6924 56.5108L40.9004 56.5059L40.9023 57.0059L43.3174 56.9961L43.3154 56.4961L45.7305 56.4863L45.7324 56.9863L48.1475 56.9766L48.1455 56.4766L49.3535 56.4727L49.624 56.4707L49.7725 56.6963L50.0801 57.1621L49.6631 57.4375L50.2773 58.3692L50.6953 58.0938L51.0029 58.5596L51.0049 58.5625C51.1935 58.8515 51.3862 59.1463 51.582 59.4463L51.1631 59.7188C51.5379 60.293 51.9239 60.8865 52.3193 61.4922L52.7393 61.2188C53.1183 61.7994 53.5046 62.3923 53.8955 62.9912L53.4756 63.2647C53.858 63.8505 54.2445 64.4426 54.6318 65.0361H54.6338L55.0527 64.7637C55.4383 65.3546 55.8249 65.9473 56.209 66.5361L55.79 66.8086H55.7891C56.1779 67.4047 56.5646 67.9971 56.9453 68.5811H56.9463L57.3643 68.3086C57.7566 68.9105 58.1438 69.5028 58.5205 70.0811L58.1016 70.3545H58.1006C58.4975 70.9639 58.8836 71.5572 59.2549 72.1279H59.2559L59.6748 71.8555C60.0787 72.4762 60.465 73.0707 60.8281 73.6299L60.4082 73.9024C60.8253 74.5447 61.2116 75.1411 61.5596 75.6787L61.9805 75.4072C62.1853 75.7238 62.3763 76.0204 62.5527 76.294L62.5537 76.293C62.7545 76.6039 62.968 76.935 63.1914 77.2793L62.7744 77.5498C63.1796 78.1742 63.6154 78.8431 64.0576 79.5205L64.4746 79.25C64.9048 79.9091 65.3412 80.5761 65.7617 81.2178L65.3438 81.4902C65.8028 82.1907 66.2434 82.8605 66.6357 83.457L67.0527 83.1836C67.2872 83.5401 67.505 83.8706 67.6992 84.165L67.6982 84.166C67.8661 84.4166 68.0642 84.7121 68.2852 85.0459L67.8682 85.3213L67.8652 85.3223C68.2028 85.8323 68.5982 86.4307 69.0312 87.0918H69.0332L69.4512 86.8174C69.814 87.3713 70.2036 87.9691 70.6104 88.5938L70.1914 88.8662C70.5649 89.4399 70.951 90.0378 71.3447 90.6455L71.7666 90.3731C72.1471 90.9603 72.5326 91.558 72.917 92.1543L72.4971 92.4248H72.4951C72.8815 93.0242 73.2652 93.6231 73.6406 94.209L73.6436 94.208L74.0645 93.9385C74.2576 94.2399 74.4475 94.5387 74.6348 94.832C74.8285 95.132 75.0193 95.4259 75.2061 95.7149L74.7861 95.9854C75.182 96.5981 75.5628 97.1865 75.9297 97.7539L76.3486 97.4834C76.7448 98.0961 77.1255 98.6837 77.4922 99.25L77.0732 99.5215C77.4698 100.134 77.8512 100.721 78.2188 101.287L78.6367 101.016C79.033 101.626 79.4148 102.213 79.7842 102.781L79.3643 103.053C79.7596 103.66 80.1426 104.246 80.5156 104.817L80.9336 104.545C81.3258 105.146 81.7077 105.73 82.085 106.306L81.667 106.579C82.0559 107.172 82.4402 107.756 82.8242 108.339L83.2412 108.064C83.434 108.357 83.6267 108.65 83.8203 108.943C83.9874 109.196 84.1549 109.45 84.3232 109.704L83.9062 109.98H83.9053C84.2393 110.484 84.5744 110.994 84.9111 111.504L84.9131 111.503L85.3311 111.228C85.6662 111.735 86.0014 112.245 86.3359 112.753L85.9189 113.027H85.917C86.2532 113.538 86.5877 114.047 86.9199 114.553L87.3398 114.278C87.6775 114.792 88.0126 115.302 88.3428 115.805L87.9229 116.079C88.2622 116.596 88.5971 117.106 88.9248 117.606L89.3447 117.333C89.686 117.854 90.0203 118.364 90.3447 118.86L89.9258 119.135H89.9248C90.2688 119.661 90.6018 120.172 90.9219 120.662H90.9238L91.3428 120.39C91.6923 120.925 92.0262 121.438 92.3408 121.921L91.9219 122.193H91.9199C92.2781 122.744 92.6114 123.257 92.915 123.725H92.917L93.3359 123.453C93.5113 123.723 93.6774 123.979 93.832 124.218C94.0589 124.569 94.3184 124.97 94.5918 125.394L94.1699 125.665C94.6664 126.434 95.2098 127.276 95.6885 128.019L96.1094 127.748C96.3921 128.187 96.6531 128.591 96.8682 128.925C97.003 129.134 97.1681 129.39 97.3564 129.68L96.9385 129.95C97.2231 130.389 97.5603 130.906 97.9238 131.464L98.3408 131.192C98.6549 131.674 98.9896 132.186 99.3271 132.704L98.9082 132.977C99.2385 133.483 99.571 133.996 99.8926 134.489L100.312 134.217C100.481 134.475 100.645 134.729 100.805 134.974L100.804 134.975C100.996 135.267 101.207 135.583 101.426 135.917L101.007 136.19L101.004 136.191C101.391 136.781 101.812 137.426 102.243 138.088L102.246 138.087L102.665 137.813C103.075 138.442 103.493 139.086 103.899 139.712L103.479 139.984C103.912 140.651 104.331 141.297 104.712 141.884L105.133 141.612C105.352 141.951 105.559 142.269 105.748 142.561L105.75 142.563C105.989 142.937 106.227 143.309 106.458 143.67L106.039 143.938C106.577 144.777 107.077 145.553 107.463 146.149L107.881 145.879C108.242 146.437 108.5 146.832 108.594 146.972C108.679 147.099 108.799 147.285 108.935 147.503L108.509 147.767C108.697 148.069 108.922 148.442 109.143 148.815L109.574 148.562C109.68 148.74 109.784 148.919 109.883 149.092C109.949 149.205 110.015 149.313 110.078 149.415L109.655 149.677C109.728 149.793 109.797 149.902 109.862 150.001C109.863 149.891 109.865 149.765 109.866 149.624L110.363 149.626C110.366 149.141 110.369 148.478 110.372 147.649H109.874C109.876 147.075 109.877 146.42 109.879 145.69H110.378C110.379 145.084 110.38 144.425 110.381 143.716H109.883C109.884 143.1 109.885 142.446 109.886 141.757H110.384C110.385 141.13 110.385 140.474 110.386 139.789H109.889C109.889 139.157 109.89 138.5 109.891 137.82H110.388C110.388 137.185 110.389 136.529 110.39 135.853H109.892C109.892 135.215 109.893 134.558 109.894 133.886H110.392C110.392 133.245 110.393 132.59 110.394 131.919H109.895C109.895 131.276 109.895 130.62 109.896 129.95H110.395C110.395 129.306 110.394 128.649 110.395 127.98H109.896C109.896 127.333 109.896 126.675 109.896 126.006H110.395C110.395 125.362 110.394 124.708 110.395 124.044H109.896C109.897 123.399 109.896 122.744 109.896 122.081H110.395C110.395 121.433 110.395 120.777 110.395 120.112H109.896C109.896 119.462 109.897 118.803 109.896 118.137H110.395C110.394 117.49 110.395 116.836 110.395 116.176H109.896C109.896 115.527 109.896 114.872 109.896 114.211H110.395C110.394 113.559 110.395 112.901 110.395 112.237L109.896 112.238C109.895 111.589 109.895 110.934 109.895 110.273H110.395C110.394 109.624 110.394 108.969 110.394 108.309H109.894C109.893 107.656 109.893 106.998 109.893 106.335H110.392C110.391 105.685 110.391 105.031 110.391 104.372H109.892C109.891 103.721 109.891 103.065 109.891 102.405H110.389C110.388 101.751 110.388 101.093 110.388 100.432H109.89C109.889 99.7818 109.888 99.1279 109.888 98.4707H110.386C110.385 97.8176 110.384 97.161 110.384 96.501H109.887C109.886 95.8487 109.885 95.193 109.885 94.5342H110.383C110.382 93.8819 110.381 93.2266 110.381 92.5684H109.883C109.882 91.914 109.882 91.2567 109.882 90.5967L110.379 90.5957C110.378 89.9444 110.379 89.2904 110.378 88.6338H109.88C109.879 87.9797 109.879 87.3231 109.878 86.6641L110.376 86.6631C110.375 86.0104 110.376 85.3554 110.375 84.6983H109.875C109.875 84.3697 109.874 84.0406 109.874 83.7109V82.7295H110.373L110.372 80.7676L109.872 80.7686L109.871 78.8067H110.371L110.37 76.8447H109.87L109.869 74.8838H110.368L110.367 72.9219H109.868L109.866 70.9609L110.366 70.96L110.365 68.999H109.865L109.864 67.0381L110.363 67.0371L110.362 65.0762H109.863L109.861 63.1143H110.361L110.36 61.1533H109.86L109.859 59.1914H110.359L110.357 57.2295L109.858 57.2305L109.856 55.2686H110.356L110.355 53.3067L109.855 53.3076L109.854 51.3457H110.354L110.353 49.3838H109.854L109.852 47.4229L110.352 47.4219L110.351 45.4609H109.851L109.85 43.5L110.35 43.499L110.348 41.5381H109.849L109.848 39.5762H110.347L110.346 37.6152H109.846L109.845 35.6533H110.345L110.343 33.6914L109.844 33.6924L109.843 31.7305H110.342L110.341 29.7686L109.841 29.7695L109.84 27.8076H110.34L110.339 25.8457H109.839L109.838 23.8848H110.337L110.336 21.9229H109.836L109.835 19.9619L110.335 19.9609L110.334 18H109.834V17.5195H109.354V17.0195H107.395V17.5195H105.435V17.0195H103.475V17.5195H101.516V17.0195H99.5557V17.5195H97.5967V17.0195H95.6367V17.5195H93.6777V17.0195H91.7178V17.5195H89.7588V17.0195H87.7988V17.5195H85.8398V17.0195H83.8799V17.5195H81.9209V17.0195H79.9609V17.5195H78.002V17.0195H76.042V17.5195H74.083V17.0195H72.123V17.5195H70.1641V17.0195H68.2041V17.5195H66.2451V17.0195H64.2852V17.5195H62.3252V17.0195H60.3662V17.5195H58.4062V17.0195H56.4473V17.5195H54.4873V17.0195H52.5283V17.5195H50.5684V17.0195H48.6094V17.5195H46.6494V17.0195H44.6904V17.5195H42.7305V17.0195H40.7715V17.5195H38.8115V17.0195H36.8525V17.5195H34.8926V17.0195H32.9336V17.5195H30.9736V17.0195H29.0146V17.5195H27.0547V17.0195H25.0957V17.5195H23.1357V17.0195H21.1768V17.5195H19.2168V17.0195H17.2568V17.5195H15.2979V17.0195H13.3379V17.5195H11.3789V17.0195H9.41895V17.5195H7.45996V17.0195H5.5V17.5195H3.54102V17.0195H1.58105V17.5195H0.105469L0.101562 17.0234L0.0917969 15.7119L0.59082 15.708L0.570312 13.0859L0.0712891 13.0899L0.0605469 11.7793C0.0577326 11.4657 0.0553557 11.1611 0.0527344 10.8652L0.552734 10.8604V10.8594C0.546967 10.2085 0.541942 9.60002 0.537109 9.03126L0.0361328 9.03614C0.0305258 8.37624 0.0258335 7.76952 0.0214844 7.21192L0.522461 7.20704C0.517174 6.52918 0.513191 5.92375 0.509766 5.38282L0.00878906 5.38673C0.00426127 4.67188 0.00128134 4.06915 0 3.56056L0.5 3.55958L0.500977 3.5586C0.498871 2.72184 0.501099 2.14107 0.507812 1.73439L0.00683594 1.72657C0.0156201 1.19446 0.0325978 0.906869 0.0712891 0.729503L0.0703125 0.728526C0.0707203 0.726489 0.0728154 0.724685 0.0732422 0.722667C0.074092 0.718894 0.0733471 0.714622 0.0742188 0.710948L0.0761719 0.711925C0.138275 0.444448 0.364961 0.34748 0.417969 0.326183C0.501636 0.292583 0.593983 0.274028 0.673828 0.261729C0.842387 0.23576 1.10165 0.215442 1.49121 0.197276L1.51465 0.6963C1.95148 0.675939 2.58119 0.657995 3.48438 0.641612L3.47559 0.141612C4.03021 0.131558 4.68724 0.121973 5.46484 0.113292L5.4707 0.613292C6.05122 0.606813 6.69937 0.60148 7.42285 0.595714L7.41895 0.0957139C8.02285 0.090893 8.67941 0.0863748 9.39258 0.082042L9.39648 0.582042C10.0108 0.578302 10.6674 0.574708 11.3691 0.5713L11.3662 0.0712998C11.9885 0.0682786 12.6466 0.0652726 13.3418 0.0625107L13.3438 0.562511C13.9748 0.559994 14.6367 0.557994 15.3311 0.555675L15.3291 0.0546982C15.9636 0.0525773 16.6257 0.0508073 17.3154 0.0488389L17.3164 0.548839C17.9423 0.54706 18.5915 0.546586 19.2646 0.544933V0.543956L19.2627 0.0439561C19.9045 0.0423845 20.5686 0.040538 21.2549 0.0390732L21.2559 0.541026C21.8921 0.539667 22.5479 0.538388 23.2236 0.53712L23.2227 0.035167C23.8613 0.0339616 24.5184 0.0323899 25.1934 0.0312607L25.1943 0.531261V0.53419C25.8392 0.533122 26.5008 0.531283 27.1797 0.530284V0.0283311C27.8183 0.0273852 28.4722 0.0262862 29.1416 0.0254014L29.1426 0.525401V0.527354C29.7887 0.526505 30.4494 0.524244 31.125 0.523448V0.0234482C31.7692 0.0227007 32.4272 0.0221969 33.0986 0.0214951V0.521495C33.7412 0.520815 34.3964 0.52018 35.0645 0.519542L35.0635 0.019542C35.7196 0.0189164 36.3882 0.0181687 37.0693 0.0175889L37.0703 0.517589V0.518565C37.7051 0.518018 38.3509 0.518103 39.0078 0.517589V0.0156357C39.6648 0.0151171 40.3332 0.0151321 41.0127 0.0146592V0.515636C41.6555 0.51518 42.3084 0.515087 42.9717 0.514659V0.512706L42.9707 0.0127061C43.6153 0.0122941 44.2703 0.012111 44.9346 0.0117295V0.512706C45.5988 0.512316 46.2729 0.512095 46.957 0.511729V0.0107529C47.5925 0.0104173 48.2368 0.0100968 48.8896 0.00977637V0.509776C49.5378 0.50946 50.1947 0.509096 50.8604 0.5088V0.00879981C51.5261 0.00850989 52.2013 0.0080979 52.8848 0.00782325V0.507823C53.5209 0.507565 54.1648 0.507089 54.8164 0.506847V0.00684668C55.4639 0.00660262 56.1192 0.0070755 56.7822 0.00684668V0.506847C57.4456 0.506621 58.1168 0.507057 58.7959 0.506847V0.00587012C59.4408 0.00567182 60.0928 0.00509186 60.752 0.00489356V0.506847C61.3961 0.506664 62.0471 0.50604 62.7051 0.50587V0.00489356C63.3627 0.00472574 64.0276 0.00408481 64.6992 0.003917V0.50587C65.361 0.505714 66.0296 0.506015 66.7051 0.50587V0.003917C67.3429 0.00377967 67.9875 0.0030625 68.6377 0.00294043V0.50587C69.2877 0.505743 69.944 0.505012 70.6064 0.504894V0.00294043C71.2691 0.00281836 71.9381 0.00304724 72.6133 0.00294043V0.504894C73.2675 0.504787 73.9276 0.504992 74.5938 0.504894V0.00196387C75.2349 0.00187232 75.8819 0.00205542 76.5342 0.00196387V0.504894C77.1865 0.504806 77.8443 0.503997 78.5078 0.503917V0.00196387C79.1714 0.00188758 79.8408 0.00204016 80.5156 0.00196387V0.503917C81.1707 0.503845 81.8312 0.503982 82.4971 0.503917V0.000987308C83.1384 0.000926273 83.7852 0.00104834 84.4365 0.000987308V0.503917C85.0877 0.503859 85.744 0.502993 86.4053 0.50294V0.000987308C87.0667 0.000926276 87.7336 0.00103308 88.4053 0.000987308V0.50294C89.0705 0.502893 89.7407 0.502983 90.416 0.50294V0.000987308C91.0549 0.000941531 91.6987 0.00103308 92.3467 0.000987308V0.50294C92.9948 0.502904 93.6474 0.502973 94.3047 0.50294V1.07452e-05C94.9618 -1.9768e-05 95.6237 4.12584e-05 96.29 1.07452e-05V0.501964ZM127.732 150.716L127.849 150.854C127.898 150.812 127.945 150.746 127.979 150.664L127.727 150.563C127.728 150.621 127.731 150.672 127.732 150.716ZM110.317 150.101C110.244 150.104 110.159 150.126 110.078 150.178C110.055 150.193 110.034 150.209 110.016 150.226C110.041 150.262 110.065 150.296 110.088 150.327L110.357 150.127C110.357 150.119 110.358 150.111 110.358 150.103C110.345 150.102 110.332 150.1 110.317 150.101Z" fill="black"/>
</svg>
