<svg width="237" height="192" viewBox="0 0 237 192" fill="none" xmlns="http://www.w3.org/2000/svg">
<path d="M0.0615318 0.326532C-0.0205106 0.67228 -0.0205106 2.13211 0.0615318 11.2752L0.102553 16.5191H54.9684H109.834L109.875 83.2101C109.916 119.898 109.896 149.997 109.855 150.093C109.814 150.17 109.404 149.613 108.952 148.845C108.501 148.057 107.927 147.116 107.681 146.751C107.435 146.386 106.142 144.388 104.83 142.333C103.496 140.278 101.281 136.859 99.8866 134.746C98.5124 132.633 96.728 129.905 95.9486 128.695C95.1692 127.485 93.795 125.353 92.913 123.989C90.8004 120.724 86.6573 114.385 82.9038 108.719C80.2785 104.743 77.7967 100.92 73.7151 94.6006C71.2128 90.6821 68.0952 85.8992 66.7825 83.94C65.4903 81.9808 63.1727 78.4464 61.6344 76.0646C59.1936 72.2806 53.8608 64.1171 50.0869 58.3354L48.8563 56.4722L39.1958 56.5106C27.7303 56.5683 28.6328 56.2993 30.7249 59.2382C31.1351 59.8337 31.4838 60.3523 31.4838 60.3907C31.4838 60.4483 32.3452 61.7545 33.3913 63.3296C34.4373 64.8854 36.3038 67.7282 37.5344 69.6299C38.765 71.5315 40.4264 74.0478 41.2263 75.2387C42.0057 76.4104 42.9492 77.8126 43.2774 78.3504C43.8312 79.234 44.5695 80.3288 46.5591 83.2677C46.9077 83.7863 47.8923 85.2846 48.7332 86.5715C50.9894 90.0866 52.5687 92.5069 53.9019 94.5237C54.5582 95.5226 55.9939 97.7123 57.1015 99.4026C62.7829 108.162 64.4033 110.62 66.3518 113.521C68.5464 116.786 70.4539 119.706 74.9868 126.717C76.443 128.964 78.0633 131.423 78.5966 132.191C79.1094 132.959 80.6067 135.226 81.8988 137.243C83.191 139.241 84.7293 141.584 85.2831 142.429C85.8574 143.274 87.4367 145.694 88.8109 147.807C90.1851 149.92 91.826 152.417 92.4823 153.378C93.5694 154.972 94.7795 156.816 101.22 166.631C103.661 170.358 105.424 173.009 112.213 183.208C114.347 186.397 116.377 189.47 116.746 190.027C117.116 190.565 117.628 191.276 117.895 191.602C118.531 192.332 118.674 192.217 120.233 189.893C120.869 188.932 121.792 187.53 122.305 186.8C124.315 183.784 127.945 178.31 128.273 177.811C128.458 177.503 129.094 176.581 129.689 175.736C130.263 174.891 130.755 174.161 130.755 174.103C130.755 174.046 130.94 173.777 131.145 173.489C131.617 172.855 134.55 168.418 137.011 164.615C138.857 161.753 142.221 156.624 145.441 151.784C146.446 150.266 148.599 146.981 150.22 144.484C151.84 141.987 153.399 139.567 153.706 139.125C153.994 138.683 155.368 136.571 156.763 134.419C158.137 132.268 159.798 129.732 160.454 128.772C161.09 127.812 162.341 125.91 163.244 124.546C164.126 123.182 166.792 119.091 169.171 115.442C171.551 111.792 173.786 108.373 174.135 107.854C174.504 107.316 175.037 106.51 175.325 106.029C175.878 105.165 178.196 101.65 181.006 97.3858C181.806 96.1756 183.365 93.7938 184.472 92.1035C187.98 86.7252 190.318 83.1525 192.328 80.0983C193.394 78.4656 194.892 76.1607 195.651 75.0082C200.307 67.9011 202.542 64.5013 205.27 60.4099C206.48 58.6235 207.465 57.01 207.465 56.818C207.465 56.4914 206.952 56.4722 197.784 56.4722H188.082L187.364 57.6247C186.708 58.6812 183.057 64.29 176.801 73.8557C175.427 75.9686 173.745 78.5617 173.068 79.6181C170.238 84.0168 161.152 98.0388 159.778 100.075C158.978 101.285 156.804 104.608 154.958 107.47C153.112 110.313 150.896 113.732 150.035 115.057C149.174 116.383 148.046 118.111 147.533 118.899C146.261 120.897 139.575 131.231 136.395 136.09C131.842 143.082 127.617 149.709 127.514 150.055C127.473 150.247 127.35 150.401 127.248 150.401C127.145 150.401 127.063 122.068 127.063 83.4598V16.5191L181.991 16.4807L236.897 16.423L236.959 8.20191L237 -8.43561e-06H118.572C5.92756 -8.43561e-06 0.123064 0.0191998 0.0615318 0.326532Z" fill="white"/>
</svg>
